<svg width="408" height="237" viewBox="0 0 408 237" fill="none" xmlns="http://www.w3.org/2000/svg">
<g clip-path="url(#clip0_3000_17452)">
<g opacity="0.47">
<mask id="mask0_3000_17452" style="mask-type:luminance" maskUnits="userSpaceOnUse" x="0" y="28" width="180" height="196">
<path d="M179.252 28.9941H0.157227V223.945H179.252V28.9941Z" fill="white"/>
</mask>
<g mask="url(#mask0_3000_17452)">
<path d="M160.558 116.462L178.891 189.189C178.941 189.398 178.806 189.613 178.584 189.668L43.9374 223.582C43.7178 223.641 43.4956 223.514 43.4427 223.307L26.6602 156.722L41.5512 137.064L56.601 145.312L77.5553 126.932L93.1659 140.125L106.504 123.678L121.562 133.763L137.813 116.422L149.878 129.387L160.558 116.469V116.462Z" fill="#737373" stroke="#595959" stroke-width="1.02378" stroke-miterlimit="6.89"/>
<path d="M144.249 53.3021L157.216 104.747L146.537 117.665L134.471 104.7L118.22 122.043L103.163 111.959L89.8244 128.405L74.2138 115.213L53.2594 133.593L38.2097 125.345L23.3186 145.003L0.523051 54.5639C0.470142 54.3576 0.607704 54.1406 0.827274 54.0824L98.7447 29.4219L105.673 56.921C106.472 60.0875 109.821 61.9737 113.157 61.1325L144.249 53.3021Z" fill="#737373" stroke="#595959" stroke-width="1.02378" stroke-miterlimit="6.89"/>
<path d="M109.149 52.1096L104.115 32.1367L137.434 49.6229L114.842 55.3132C112.305 55.9534 109.755 54.5169 109.147 52.1096" fill="#CCCCCC"/>
</g>
</g>
<g opacity="0.47">
<mask id="mask1_3000_17452" style="mask-type:luminance" maskUnits="userSpaceOnUse" x="233" y="19" width="175" height="208">
<path d="M407.806 19.9512H233.759V226.254H407.806V19.9512Z" fill="white"/>
</mask>
<g mask="url(#mask1_3000_17452)">
<path d="M407.375 92.5968L371.837 225.587C371.776 225.809 371.546 225.944 371.324 225.883L234.423 189.3C234.201 189.239 234.066 189.009 234.127 188.787L279.067 20.6097C279.128 20.3875 279.358 20.2526 279.58 20.3134L379.135 46.9158L371.265 76.3698C370.358 79.7639 372.371 83.2426 375.765 84.15L407.375 92.5968Z" fill="#737373" stroke="#595959" stroke-width="1.02378" stroke-miterlimit="6.89"/>
<path d="M376.805 73.6018L382.522 52.2109L403.198 85.6596L380.228 79.5222C377.649 78.8318 376.115 76.1811 376.805 73.6018Z" fill="#595959"/>
<path d="M299.866 156.958L326.426 164.056L320.302 186.976L293.742 179.878L299.866 156.958ZM310.128 127.2L311.53 126.274C327.529 129.104 334.029 126.94 335.579 121.144L335.616 121.009C336.841 116.425 333.958 112.621 327.487 110.893C321.151 109.2 313.276 110.563 305.424 114.531L296.697 93.132C307.12 87.1058 319.895 84.1641 335.4 88.3068C355.219 93.6029 366.224 108.1 361.539 125.626L361.467 125.896C356.928 142.884 343.659 147.138 327.72 146.778L323.797 154.974L307.482 150.614L310.128 127.197V127.2Z" fill="#595959"/>
</g>
</g>
<path d="M300.008 50.1734V235.72C300.008 236.032 299.754 236.286 299.442 236.286H108.44C108.128 236.286 107.874 236.032 107.874 235.72V1.07979C107.874 0.770277 108.128 0.513672 108.44 0.513672H247.338V41.6049C247.338 46.3402 251.168 50.1708 255.904 50.1708H300.008V50.1734Z" fill="#737373" stroke="#595959" stroke-width="1.02378" stroke-miterlimit="6.89"/>
<path d="M252.023 37.3351V7.49219L290.588 43.8534H258.542C254.941 43.8534 252.023 40.9355 252.023 37.3351Z" fill="#595959"/>
<path d="M139.217 91.3101L163.51 68.168L202.077 108.653L242.989 69.6785L265.52 93.3312L224.608 132.306L263.38 173.006L239.087 196.148L200.315 155.448L159.404 194.423L136.873 170.77L177.784 131.796L139.217 91.3101Z" fill="#595959"/>
</g>
<defs>
<clipPath id="clip0_3000_17452">
<rect width="408" height="236.794" fill="white"/>
</clipPath>
</defs>
</svg>
