<svg width="20" height="20" viewBox="0 0 20 20" fill="none" xmlns="http://www.w3.org/2000/svg">
<path d="M13.333 13.3333V2.5H0.833008V13.3333H13.333ZM13.333 13.3333H19.1663V9.16667L16.6663 6.66667H13.333V13.3333ZM6.66634 15.4167C6.66634 16.5673 5.7336 17.5 4.58301 17.5C3.43241 17.5 2.49967 16.5673 2.49967 15.4167C2.49967 14.2661 3.43241 13.3333 4.58301 13.3333C5.7336 13.3333 6.66634 14.2661 6.66634 15.4167ZM17.4997 15.4167C17.4997 16.5673 16.5669 17.5 15.4163 17.5C14.2657 17.5 13.333 16.5673 13.333 15.4167C13.333 14.2661 14.2657 13.3333 15.4163 13.3333C16.5669 13.3333 17.4997 14.2661 17.4997 15.4167Z" stroke="#00C181" stroke-width="1.66667" stroke-linecap="round" stroke-linejoin="round"/>
</svg>
