<svg width="28" height="29" viewBox="0 0 28 29" fill="none" xmlns="http://www.w3.org/2000/svg">
<path d="M12.8335 2.83301H10.5002C4.66683 2.83301 2.3335 5.16634 2.3335 10.9997V17.9997C2.3335 23.833 4.66683 26.1663 10.5002 26.1663H17.5002C23.3335 26.1663 25.6668 23.833 25.6668 17.9997V15.6663" stroke="#BFBFBF" stroke-width="1.5" stroke-linecap="round" stroke-linejoin="round"/>
<path d="M18.7132 4.02314L9.51986 13.2165C9.16986 13.5665 8.81986 14.2548 8.74986 14.7565L8.24819 18.2681C8.06153 19.5398 8.95986 20.4265 10.2315 20.2515L13.7432 19.7498C14.2332 19.6798 14.9215 19.3298 15.2832 18.9798L24.4765 9.78647C26.0632 8.19981 26.8099 6.35647 24.4765 4.02314C22.1432 1.68981 20.2999 2.43647 18.7132 4.02314Z" stroke="#BFBFBF" stroke-width="1.5" stroke-miterlimit="10" stroke-linecap="round" stroke-linejoin="round"/>
<path d="M17.395 5.3418C18.1767 8.13013 20.3584 10.3118 23.1584 11.1051" stroke="#BFBFBF" stroke-width="1.5" stroke-miterlimit="10" stroke-linecap="round" stroke-linejoin="round"/>
</svg>
