<svg width="28" height="29" viewBox="0 0 28 29" fill="none" xmlns="http://www.w3.org/2000/svg">
<path d="M24.5 7.47689C20.615 7.09189 16.7067 6.89355 12.81 6.89355C10.5 6.89355 8.19 7.01022 5.88 7.24355L3.5 7.47689" stroke="#BFBFBF" stroke-width="1.5" stroke-linecap="round" stroke-linejoin="round"/>
<path d="M9.9165 6.29801L10.1732 4.76967C10.3598 3.66134 10.4998 2.83301 12.4715 2.83301H15.5282C17.4998 2.83301 17.6515 3.70801 17.8265 4.78134L18.0832 6.29801" stroke="#BFBFBF" stroke-width="1.5" stroke-linecap="round" stroke-linejoin="round"/>
<path d="M21.9916 11.1631L21.2333 22.9114C21.105 24.7431 21 26.1664 17.745 26.1664H10.255C6.99997 26.1664 6.89497 24.7431 6.76663 22.9114L6.0083 11.1631" stroke="#BFBFBF" stroke-width="1.5" stroke-linecap="round" stroke-linejoin="round"/>
<path d="M12.0518 19.75H15.9368" stroke="#BFBFBF" stroke-width="1.5" stroke-linecap="round" stroke-linejoin="round"/>
<path d="M11.0835 15.083H16.9168" stroke="#BFBFBF" stroke-width="1.5" stroke-linecap="round" stroke-linejoin="round"/>
</svg>
