<svg width="20" height="20" viewBox="0 0 20 20" fill="none" xmlns="http://www.w3.org/2000/svg">
<path d="M12.9167 9.99967C12.9167 10.3827 12.8413 10.762 12.6947 11.1158C12.5481 11.4697 12.3333 11.7912 12.0624 12.0621C11.7916 12.3329 11.4701 12.5477 11.1162 12.6943C10.7623 12.8409 10.3831 12.9163 10 12.9163C9.61702 12.9163 9.23775 12.8409 8.88388 12.6943C8.53001 12.5477 8.20848 12.3329 7.93765 12.0621C7.66681 11.7912 7.45197 11.4697 7.30539 11.1158C7.15882 10.762 7.08337 10.3827 7.08337 9.99967C7.08337 9.22613 7.39066 8.48426 7.93765 7.93728C8.48463 7.3903 9.22649 7.08301 10 7.08301C10.7736 7.08301 11.5155 7.3903 12.0624 7.93728C12.6094 8.48426 12.9167 9.22613 12.9167 9.99967Z" fill="#999999"/>
<path d="M9.99995 2.91699C12.86 2.91699 15.1033 4.19533 16.7116 5.61783C18.3166 7.03699 19.3216 8.62616 19.725 9.33449C19.8417 9.53699 19.9031 9.7666 19.9031 10.0003C19.9031 10.234 19.8417 10.4637 19.725 10.6662C19.3216 11.3745 18.3166 12.9637 16.7116 14.3837C15.1041 15.8053 12.86 17.0837 9.99995 17.0837C7.13995 17.0837 4.89662 15.8053 3.28829 14.3837C1.68329 12.9653 0.678287 11.3753 0.274954 10.667C0.158239 10.4645 0.0968018 10.2349 0.0968018 10.0012C0.0968018 9.76744 0.158239 9.53782 0.274954 9.33533C0.678287 8.62699 1.68329 7.03783 3.28829 5.61699C4.89579 4.19533 7.13995 2.91699 9.99995 2.91699ZM1.36079 9.95449C1.35167 9.96805 1.34675 9.98399 1.34662 10.0003C1.34718 10.017 1.3519 10.0325 1.36079 10.047C1.72829 10.692 2.65329 12.1528 4.11662 13.447C5.57579 14.7378 7.53745 15.8337 9.99995 15.8337C12.4625 15.8337 14.425 14.7378 15.8833 13.447C17.3466 12.1528 18.2716 10.692 18.6391 10.047C18.6484 10.0332 18.6533 10.0169 18.6533 10.0003C18.6533 9.98371 18.6484 9.96745 18.6391 9.95366C18.2716 9.30949 17.3466 7.84783 15.8833 6.55366C14.4241 5.26283 12.4625 4.16699 9.99995 4.16699C7.53745 4.16699 5.57495 5.26199 4.11662 6.55449C2.65329 7.84783 1.72829 9.30949 1.36079 9.95449Z" fill="#999999"/>
</svg>
