<svg width="161" height="44" viewBox="0 0 161 44" fill="none" xmlns="http://www.w3.org/2000/svg">
<mask id="path-1-inside-1_4490_8958" fill="white">
<path d="M0.5 16C0.5 7.16344 7.66344 0 16.5 0H144.5C153.337 0 160.5 7.16344 160.5 16V28C160.5 36.8366 153.337 44 144.5 44H16.5C7.66345 44 0.5 36.8366 0.5 28V16Z"/>
</mask>
<path d="M0.5 0H160.5H0.5ZM160.5 28C160.5 37.3888 152.889 45 143.5 45H17.5C8.11116 45 0.5 37.3888 0.5 28C0.5 36.2843 7.66344 43 16.5 43H144.5C153.337 43 160.5 36.2843 160.5 28ZM0.5 44V0V44ZM160.5 0V44V0Z" fill="url(#paint0_linear_4490_8958)" mask="url(#path-1-inside-1_4490_8958)"/>
<path d="M33.3164 15.0977C37.0693 15.0977 39.4336 17.6201 39.4336 21.6631C39.4336 25.6973 37.0693 28.2197 33.3164 28.2197C29.5547 28.2197 27.1992 25.6973 27.1992 21.6631C27.1992 17.6201 29.5547 15.0977 33.3164 15.0977ZM33.3164 17.3125C31.2422 17.3125 29.9062 19 29.9062 21.6631C29.9062 24.3174 31.2334 25.9961 33.3164 25.9961C35.3906 25.9961 36.7178 24.3174 36.7178 21.6631C36.7178 19 35.3906 17.3125 33.3164 17.3125ZM31.5234 14.1924C30.8555 14.1924 30.3457 13.6826 30.3457 13.0498C30.3457 12.417 30.8555 11.9072 31.5234 11.9072C32.1914 11.9072 32.7012 12.417 32.7012 13.0498C32.7012 13.6826 32.1914 14.1924 31.5234 14.1924ZM35.1094 14.1924C34.4414 14.1924 33.9316 13.6826 33.9316 13.0498C33.9316 12.417 34.4414 11.9072 35.1094 11.9072C35.7773 11.9072 36.2871 12.417 36.2871 13.0498C36.2871 13.6826 35.7773 14.1924 35.1094 14.1924ZM40.6113 28V26.541L45.3047 20.5908V20.5381H40.6816V18.5781H48.2842V20.2041L43.8721 25.9873V26.0312H48.3896V28H40.6113ZM58.5938 18.5781V28H56.1152V26.3037H56.0625C55.5967 27.4902 54.665 28.1758 53.2412 28.1758C51.2021 28.1758 49.8486 26.8486 49.8486 24.6514V18.5781H52.415V24.1152C52.415 25.3721 53.0391 26.04 54.1729 26.04C55.3154 26.04 56.0273 25.2227 56.0273 23.9746V18.5781H58.5938ZM52.4414 17.2773C51.7734 17.2773 51.2637 16.7676 51.2637 16.1348C51.2637 15.502 51.7734 14.9922 52.4414 14.9922C53.1094 14.9922 53.6191 15.502 53.6191 16.1348C53.6191 16.7676 53.1094 17.2773 52.4414 17.2773ZM56.0273 17.2773C55.3594 17.2773 54.8496 16.7676 54.8496 16.1348C54.8496 15.502 55.3594 14.9922 56.0273 14.9922C56.6953 14.9922 57.2051 15.502 57.2051 16.1348C57.2051 16.7676 56.6953 17.2773 56.0273 17.2773ZM60.2637 28V18.5781H62.7422V20.2568H62.7949C63.2959 19.0879 64.2891 18.4023 65.7393 18.4023C67.8311 18.4023 69.0088 19.7207 69.0088 21.9268V28H66.4424V22.4629C66.4424 21.2324 65.8623 20.5293 64.7109 20.5293C63.5596 20.5293 62.8301 21.373 62.8301 22.5947V28H60.2637ZM74.0449 21.3467C74.0449 19.5537 75.6006 18.376 78.0176 18.376C80.3818 18.376 81.9199 19.5713 81.9551 21.3994H79.5908C79.5381 20.6436 78.9316 20.1777 77.9824 20.1777C77.0947 20.1777 76.5146 20.582 76.5146 21.1885C76.5146 21.6543 76.9189 21.9707 77.7451 22.1641L79.5469 22.5508C81.4365 22.9727 82.2012 23.7197 82.2012 25.126C82.2012 26.9805 80.4961 28.2021 78.0088 28.2021C75.4951 28.2021 73.9482 26.9893 73.8076 25.1523H76.3125C76.4355 25.9434 77.0596 26.4004 78.0791 26.4004C79.0547 26.4004 79.6436 26.0137 79.6436 25.3984C79.6436 24.9238 79.3271 24.6602 78.4834 24.458L76.7432 24.0713C74.959 23.667 74.0449 22.7354 74.0449 21.3467ZM87.7119 20.2744C86.5869 20.2744 85.7783 21.127 85.6904 22.3047H89.6895C89.6367 21.1006 88.8545 20.2744 87.7119 20.2744ZM89.7246 25.1172H92.0801C91.7988 26.9629 90.1113 28.2021 87.7822 28.2021C84.8818 28.2021 83.1416 26.3477 83.1416 23.333C83.1416 20.3271 84.8994 18.376 87.6855 18.376C90.4277 18.376 92.1592 20.2305 92.1592 23.0957V23.8779H85.6641V24.0361C85.6641 25.3809 86.5166 26.3037 87.8262 26.3037C88.7666 26.3037 89.4873 25.8379 89.7246 25.1172ZM99.665 24.5459H102.056C101.933 26.5674 100.544 27.9385 98.4258 28.167L98.0566 28.9668C99.0498 28.9756 99.709 29.5117 99.709 30.4082C99.709 31.4717 98.8652 32.0342 97.5293 32.043C97.0283 32.0518 96.5098 31.999 96.2812 31.9199V30.8477C96.4922 30.9092 96.9229 30.9531 97.2656 30.9531C97.9248 30.9531 98.2412 30.7949 98.2412 30.4785C98.2412 30.1182 97.9336 29.9951 97.1602 29.9951H96.6064V29.1338L97.0459 28.1582C94.6377 27.8594 93.1436 26.084 93.1436 23.2803C93.1436 20.2568 94.9453 18.376 97.7666 18.376C100.315 18.376 101.933 19.9492 102.047 22.085H99.665C99.5156 21.0918 98.8564 20.3887 97.8018 20.3887C96.5361 20.3887 95.7451 21.4609 95.7451 23.2803C95.7451 25.1348 96.5361 26.1895 97.8105 26.1895C98.8389 26.1895 99.5068 25.5742 99.665 24.5459Z" fill="url(#paint1_linear_4490_8958)"/>
<path d="M130.822 10.75H131.998C132.462 10.75 132.907 10.9342 133.235 11.2622C133.563 11.5902 133.748 12.035 133.748 12.499V13.676C133.749 16.417 132.703 19.0548 130.823 21.05L129.595 22.354C129.087 22.8923 128.555 23.4069 127.999 23.896V28.934C127.999 29.549 127.676 30.118 127.149 30.434L122.635 33.143C122.533 33.2046 122.417 33.2407 122.298 33.2485C122.178 33.2562 122.059 33.2354 121.949 33.1876C121.84 33.1399 121.743 33.0666 121.668 32.974C121.592 32.8813 121.54 32.772 121.515 32.655L120.552 28.083C120.502 28.0435 120.456 28.0004 120.412 27.954L118.54 25.96L116.546 24.087C116.5 24.0435 116.457 23.9968 116.417 23.947L111.846 22.984C111.729 22.9596 111.619 22.9075 111.526 22.832C111.434 22.7566 111.36 22.66 111.312 22.5504C111.264 22.4408 111.243 22.3213 111.251 22.2019C111.258 22.0825 111.295 21.9666 111.356 21.864L114.066 17.35C114.382 16.823 114.951 16.5 115.566 16.5H120.603C121.092 15.9452 121.607 15.4133 122.145 14.906L123.449 13.676C125.444 11.7967 128.081 10.75 130.821 10.75H130.822ZM124.478 14.768L123.174 15.997C121.947 17.1535 120.855 18.4454 119.919 19.848L117.726 23.138L119.585 24.882L119.619 24.916L121.362 26.774L124.65 24.582C126.054 23.6456 127.347 22.553 128.504 21.325L129.732 20.022C131.35 18.305 132.25 16.0349 132.249 13.676V12.5C132.249 12.4337 132.223 12.3701 132.176 12.3232C132.129 12.2763 132.065 12.25 131.999 12.25H130.822C128.464 12.2499 126.194 13.1506 124.478 14.768ZM117 31C115.791 32.209 113.099 32.445 112.257 32.49C112.224 32.4918 112.191 32.4868 112.16 32.4753C112.129 32.4638 112.101 32.446 112.077 32.423C112.054 32.3992 112.036 32.371 112.025 32.34C112.013 32.309 112.008 32.276 112.01 32.243C112.055 31.401 112.291 28.709 113.5 27.5C114.4 26.6 116.1 26.6 117 27.5C117.9 28.4 117.9 30.1 117 31ZM116.408 22.412L118.67 19.017C118.901 18.671 119.14 18.332 119.387 18H115.566C115.523 18 115.481 18.0112 115.443 18.0324C115.406 18.0536 115.374 18.0841 115.352 18.121L113.185 21.733L116.408 22.412ZM126.5 25.112C126.167 25.36 125.827 25.5993 125.482 25.83L122.089 28.092L122.767 31.315L126.379 29.148C126.416 29.1258 126.447 29.0944 126.468 29.0569C126.489 29.0194 126.5 28.9771 126.5 28.934V25.112ZM128 18C128 18.197 127.961 18.3922 127.886 18.5742C127.81 18.7562 127.7 18.9216 127.56 19.0609C127.421 19.2002 127.255 19.3106 127.073 19.386C126.891 19.4613 126.696 19.5001 126.499 19.5C126.302 19.4999 126.107 19.4611 125.925 19.3856C125.743 19.3101 125.578 19.1995 125.438 19.0602C125.299 18.9208 125.188 18.7553 125.113 18.5733C125.038 18.3912 124.999 18.196 124.999 17.999C124.999 17.601 125.157 17.2194 125.439 16.9381C125.72 16.6568 126.102 16.4989 126.5 16.499C126.898 16.4991 127.28 16.6573 127.561 16.9388C127.842 17.2203 128 17.602 128 18Z" fill="url(#paint2_linear_4490_8958)"/>
<defs>
<linearGradient id="paint0_linear_4490_8958" x1="0.5" y1="10.2143" x2="110.338" y2="95.8026" gradientUnits="userSpaceOnUse">
<stop stop-color="#F43F45" stop-opacity="0.8"/>
<stop offset="0.565" stop-color="#D036D6" stop-opacity="0.8"/>
<stop offset="1" stop-color="#5A4AF5" stop-opacity="0.8"/>
</linearGradient>
<linearGradient id="paint1_linear_4490_8958" x1="26.5" y1="14.5" x2="89.1558" y2="50.9427" gradientUnits="userSpaceOnUse">
<stop stop-color="#F43F45" stop-opacity="0.8"/>
<stop offset="0.565" stop-color="#D036D6" stop-opacity="0.8"/>
<stop offset="1" stop-color="#5A4AF5" stop-opacity="0.8"/>
</linearGradient>
<linearGradient id="paint2_linear_4490_8958" x1="111.249" y1="15.9732" x2="134.983" y2="21.0587" gradientUnits="userSpaceOnUse">
<stop stop-color="#F43F45" stop-opacity="0.8"/>
<stop offset="0.565" stop-color="#D036D6" stop-opacity="0.8"/>
<stop offset="1" stop-color="#5A4AF5" stop-opacity="0.8"/>
</linearGradient>
</defs>
</svg>
