<svg width="30" height="30" viewBox="0 0 30 30" fill="none" xmlns="http://www.w3.org/2000/svg">
<circle cx="14.9141" cy="14.8086" r="13.125" fill="url(#paint0_linear_2840_8104)" stroke="#161A1E" stroke-width="2.25"/>
<path fill-rule="evenodd" clip-rule="evenodd" d="M11.3133 11.8094C10.6505 11.8094 10.1133 12.3466 10.1133 13.0094V17.8094C10.1133 18.4721 10.6505 19.0094 11.3133 19.0094H18.5133C19.176 19.0094 19.7133 18.4721 19.7133 17.8094V13.0094C19.7133 12.3466 19.176 11.8094 18.5133 11.8094H17.5618C17.4027 11.8094 17.2501 11.7462 17.1375 11.6336L16.4648 10.9608C16.2397 10.7358 15.9345 10.6094 15.6162 10.6094H14.2103C13.8921 10.6094 13.5869 10.7358 13.3618 10.9608L12.689 11.6336C12.5765 11.7462 12.4239 11.8094 12.2648 11.8094H11.3133ZM14.9133 17.2094C15.9074 17.2094 16.7133 16.4035 16.7133 15.4094C16.7133 14.4153 15.9074 13.6094 14.9133 13.6094C13.9192 13.6094 13.1133 14.4153 13.1133 15.4094C13.1133 16.4035 13.9192 17.2094 14.9133 17.2094Z" fill="white"/>
<defs>
<linearGradient id="paint0_linear_2840_8104" x1="-11.0859" y1="-16.4771" x2="54.2323" y2="30.8333" gradientUnits="userSpaceOnUse">
<stop offset="0.0327905" stop-color="#FD3C43"/>
<stop offset="0.452883" stop-color="#B622DC"/>
<stop offset="0.8" stop-color="#3F27EB"/>
</linearGradient>
</defs>
</svg>
