<svg width="436" height="253" viewBox="0 0 436 253" fill="none" xmlns="http://www.w3.org/2000/svg">
<g clip-path="url(#clip0_3000_17147)">
<g opacity="0.47">
<mask id="mask0_3000_17147" style="mask-type:luminance" maskUnits="userSpaceOnUse" x="0" y="30" width="192" height="209">
<path d="M191.646 30.875H0.922974V238.485H191.646V30.875Z" fill="white"/>
</mask>
<g mask="url(#mask0_3000_17147)">
<path d="M171.738 124.021L191.261 201.471C191.314 201.693 191.171 201.922 190.934 201.981L47.545 238.097C47.3112 238.159 47.0746 238.024 47.0182 237.804L29.146 166.896L45.0039 145.961L61.0309 154.745L83.3458 135.171L99.97 149.22L114.174 131.706L130.21 142.445L147.516 123.979L160.365 137.786L171.738 124.029V124.021Z" fill="#737373" stroke="#595959" stroke-width="1.09025" stroke-miterlimit="6.89"/>
<path d="M154.37 56.7608L168.18 111.547L156.807 125.303L143.958 111.496L126.652 129.965L110.616 119.226L96.412 136.741L79.7878 122.691L57.4728 142.265L41.4459 133.481L25.5879 154.416L1.31224 58.1046C1.25589 57.8849 1.40239 57.6539 1.63621 57.5919L105.912 31.3301L113.29 60.6147C114.141 63.9869 117.707 65.9955 121.26 65.0997L154.37 56.7608Z" fill="#737373" stroke="#595959" stroke-width="1.09025" stroke-miterlimit="6.89"/>
<path d="M116.991 55.4905L111.63 34.2207L147.113 52.8423L123.054 58.9021C120.352 59.5838 117.637 58.0541 116.989 55.4905" fill="#CCCCCC"/>
</g>
</g>
<g opacity="0.47">
<mask id="mask1_3000_17147" style="mask-type:luminance" maskUnits="userSpaceOnUse" x="249" y="21" width="187" height="220">
<path d="M435.04 21.2402H249.692V240.938H435.04V21.2402Z" fill="white"/>
</mask>
<g mask="url(#mask1_3000_17147)">
<path d="M434.581 98.6076L396.735 240.233C396.671 240.47 396.425 240.613 396.189 240.549L250.399 201.59C250.163 201.525 250.019 201.28 250.084 201.043L297.942 21.9463C298.007 21.7097 298.252 21.566 298.489 21.6308L404.508 49.9604L396.127 81.327C395.161 84.9414 397.304 88.646 400.919 89.6123L434.581 98.6076Z" fill="#737373" stroke="#595959" stroke-width="1.09025" stroke-miterlimit="6.89"/>
<path d="M402.026 78.3774L408.114 55.5977L430.133 91.2182L405.671 84.6823C402.925 83.947 401.291 81.1242 402.026 78.3774Z" fill="#595959"/>
<path d="M320.091 167.146L348.376 174.705L341.854 199.113L313.569 191.555L320.091 167.146ZM331.019 135.456L332.512 134.47C349.55 137.484 356.472 135.18 358.123 129.007L358.162 128.864C359.467 123.982 356.396 119.93 349.505 118.091C342.758 116.288 334.371 117.739 326.01 121.964L316.716 99.1762C327.816 92.7587 341.42 89.626 357.931 94.0377C379.038 99.6777 390.757 115.116 385.768 133.78L385.692 134.067C380.858 152.159 366.727 156.689 349.753 156.306L345.575 165.034L328.202 160.391L331.019 135.453V135.456Z" fill="#595959"/>
</g>
</g>
<path d="M320.243 53.4311V251.026C320.243 251.358 319.972 251.629 319.64 251.629H116.236C115.904 251.629 115.633 251.358 115.633 251.026V1.14975C115.633 0.820142 115.904 0.546875 116.236 0.546875H264.152V44.3062C264.152 49.349 268.232 53.4283 273.274 53.4283H320.243V53.4311Z" fill="#737373" stroke="#595959" stroke-width="1.09025" stroke-miterlimit="6.89"/>
<path d="M269.141 39.7592V7.97852L310.21 46.7007H276.083C272.249 46.7007 269.141 43.5934 269.141 39.7592Z" fill="#595959"/>
<path d="M149.011 97.2404L174.882 72.5957L215.953 115.71L259.521 74.2043L283.515 99.3928L239.947 140.898L281.236 184.241L255.366 208.886L214.077 165.543L170.509 207.049L146.515 181.86L190.083 140.355L149.011 97.2404Z" fill="#595959"/>
</g>
<defs>
<clipPath id="clip0_3000_17147">
<rect width="434.492" height="252.169" fill="white" transform="translate(0.75415)"/>
</clipPath>
</defs>
</svg>
