<svg width="20" height="20" viewBox="0 0 20 20" fill="none" xmlns="http://www.w3.org/2000/svg">
<path d="M6.71002 4.86449C7.74565 4.4039 8.86658 4.16626 10 4.16699C12.4625 4.16699 14.4242 5.26283 15.8834 6.55366C17.3467 7.84783 18.2717 9.30949 18.6392 9.95366C18.648 9.96731 18.6526 9.98324 18.6525 9.99949C18.6532 10.0172 18.6483 10.0348 18.6383 10.0495C18.2629 10.6984 17.8366 11.3164 17.3634 11.8978C17.3083 11.9611 17.2665 12.0347 17.2405 12.1144C17.2146 12.1941 17.2049 12.2782 17.212 12.3618C17.2192 12.4453 17.2432 12.5265 17.2824 12.6006C17.3216 12.6747 17.3753 12.7402 17.4404 12.7931C17.5054 12.846 17.5804 12.8852 17.6609 12.9085C17.7415 12.9319 17.8259 12.9387 17.9091 12.9288C17.9923 12.9188 18.0727 12.8922 18.1455 12.8505C18.2182 12.8088 18.2818 12.7529 18.3325 12.6862C18.8506 12.053 19.3161 11.3785 19.7242 10.6695C19.8408 10.4664 19.9023 10.2363 19.9024 10.0021C19.9026 9.7679 19.8414 9.53773 19.725 9.33449C19.3209 8.62616 18.3167 7.03699 16.7117 5.61783C15.1034 4.19533 12.86 2.91699 10 2.91699C8.58752 2.91699 7.32085 3.22866 6.20668 3.71949C6.05578 3.78677 5.93765 3.91107 5.87814 4.0652C5.81862 4.21933 5.82256 4.39076 5.88909 4.542C5.95562 4.69324 6.07933 4.81198 6.23317 4.87226C6.38701 4.93253 6.55845 4.93027 6.71002 4.86449ZM15.9717 14.9895C14.44 16.1503 12.4442 17.0837 10 17.0837C7.14002 17.0837 4.89585 15.8053 3.28835 14.3837C1.68335 12.9637 0.678352 11.3737 0.275018 10.6653C0.15812 10.4626 0.0966557 10.2326 0.096802 9.99855C0.0969483 9.7645 0.1587 9.53461 0.275852 9.33199C1.02155 8.0397 1.95287 6.86384 3.04002 5.84199L1.09752 4.46866C1.02792 4.42236 0.968308 4.36258 0.922221 4.29284C0.876134 4.2231 0.844506 4.14482 0.829207 4.06264C0.813908 3.98046 0.81525 3.89605 0.833154 3.8144C0.851057 3.73274 0.885158 3.65551 0.933439 3.58727C0.981719 3.51903 1.0432 3.46117 1.11424 3.41712C1.18528 3.37306 1.26443 3.3437 1.34702 3.33077C1.4296 3.31785 1.51394 3.32162 1.59505 3.34187C1.67615 3.36212 1.75236 3.39843 1.81918 3.44866L18.9025 15.532C18.9721 15.5783 19.0317 15.6381 19.0778 15.7078C19.1239 15.7776 19.1555 15.8558 19.1708 15.938C19.1861 16.0202 19.1848 16.1046 19.1669 16.1863C19.149 16.2679 19.1149 16.3451 19.0666 16.4134C19.0183 16.4816 18.9568 16.5395 18.8858 16.5835C18.8148 16.6276 18.7356 16.657 18.653 16.6699C18.5704 16.6828 18.4861 16.679 18.405 16.6588C18.3239 16.6385 18.2477 16.6022 18.1809 16.552L15.9717 14.9895ZM4.08502 6.58199C2.64335 7.86616 1.72835 9.30949 1.36168 9.95199C1.35192 9.96649 1.34697 9.98369 1.34752 10.0012C1.34641 10.0139 1.35085 10.0292 1.36085 10.047C1.72835 10.692 2.65335 12.1528 4.11668 13.447C5.57502 14.7378 7.53752 15.8337 10 15.8337C11.945 15.8337 13.575 15.1503 14.895 14.2278L11.965 12.1553C11.4737 12.6039 10.8437 12.871 10.1797 12.9123C9.51562 12.9537 8.85742 12.7667 8.31424 12.3825C7.77106 11.9983 7.37556 11.4399 7.19336 10.8C7.01115 10.1602 7.0532 9.4772 7.31252 8.86449L4.08502 6.58283V6.58199Z" fill="#999999"/>
</svg>
